<svg version="1.1" xmlns="http://www.w3.org/2000/svg" width="512" height="512" viewBox="0 0 512 512">
<title></title>
<g id="icomoon-ignore">
</g>
<path d="M512.75 400c0-144-128-112-128-224 0-9.28-0.894-17.21-2.524-23.964-8.415-56.509-46.078-101.86-94.886-115.68 0.433-1.974 0.66-4.016 0.66-6.105 0-16.639-14.4-30.251-32-30.251s-32 13.612-32 30.25c0 2.090 0.228 4.132 0.66 6.105-54.735 15.499-95.457 70.649-96.627 136.721-0.020 0.96-0.033 1.932-0.033 2.923 0 112.001-128 80.001-128 224.001 0 38.113 85.295 69.998 199.485 78.040 10.762 20.202 32.028 33.96 56.515 33.96s45.754-13.758 56.515-33.96c114.19-8.042 199.485-39.927 199.485-78.040 0-0.114-0.013-0.228-0.014-0.341l0.764 0.341zM413.123 427.048c-27.115 7.235-59.079 12.438-93.384 15.324-2.852-32.709-30.291-58.372-63.739-58.372s-60.887 25.663-63.739 58.372c-34.304-2.886-66.269-8.089-93.384-15.324-37.315-9.957-55.155-21.095-61.684-27.048 6.529-5.953 24.369-17.091 61.684-27.048 43.386-11.576 99.186-17.952 157.123-17.952s113.737 6.376 157.123 17.952c37.315 9.957 55.155 21.095 61.684 27.048-6.529 5.953-24.369 17.091-61.684 27.048z"></path>
</svg>
