<svg version="1.1" xmlns="http://www.w3.org/2000/svg" width="512" height="512" viewBox="0 0 512 512">
<title></title>
<g id="icomoon-ignore">
</g>
<path d="M480 160h-96v-48c0-44.183-85.961-80-192-80s-192 35.817-192 80v320c0 44.183 85.961 80 192 80s192-35.817 192-80v-48h96c17.673 0 32-14.327 32-32v-160c0-17.673-14.327-32-32-32zM88.028 129.199c-18.497-6.095-29.704-12.623-35.705-17.199 6.002-4.576 17.208-11.104 35.705-17.199 28.971-9.545 65.895-14.801 103.972-14.801s75.002 5.256 103.972 14.801c18.497 6.094 29.704 12.623 35.705 17.199-6.001 4.576-17.208 11.104-35.705 17.199-28.97 9.545-65.895 14.801-103.972 14.801s-75.001-5.256-103.972-14.801zM448 320h-64v-96h64v96z"></path>
</svg>
